<?xml version="1.0" encoding="UTF-8" standalone="no"?>
<!DOCTYPE svg PUBLIC "-//W3C//DTD SVG 1.1//EN"
 "http://www.w3.org/Graphics/SVG/1.1/DTD/svg11.dtd">
<!-- Generated by graphviz version 2.36.0 (20140111.2315)
 -->
<!-- Title: controllers_diagram Pages: 1 -->
<svg width="816pt" height="786pt"
 viewBox="0.00 0.00 816.00 786.00" xmlns="http://www.w3.org/2000/svg" xmlns:xlink="http://www.w3.org/1999/xlink">
<g id="graph0" class="graph" transform="scale(1 1) rotate(0) translate(4 782)">
<title>controllers_diagram</title>
<polygon fill="white" stroke="none" points="-4,4 -4,-782 812,-782 812,4 -4,4"/>
<!-- _diagram_info -->
<g id="node1" class="node"><title>_diagram_info</title>
<text text-anchor="start" x="602" y="-283.6" font-family="Times,serif" font-size="13.00">Controllers diagram</text>
<text text-anchor="start" x="602" y="-269.6" font-family="Times,serif" font-size="13.00">Date: Jun 12 2015 &#45; 14:21</text>
<text text-anchor="start" x="602" y="-255.6" font-family="Times,serif" font-size="13.00">Migration version: 20150605145700</text>
<text text-anchor="start" x="602" y="-241.6" font-family="Times,serif" font-size="13.00">Generated by RailRoady 1.3.0</text>
<text text-anchor="start" x="602" y="-227.6" font-family="Times,serif" font-size="13.00">http://railroady.prestonlee.com</text>
</g>
<!-- TasksController -->
<g id="node2" class="node"><title>TasksController</title>
<path fill="none" stroke="black" d="M34,-308.5C34,-308.5 148,-308.5 148,-308.5 154,-308.5 160,-314.5 160,-320.5 160,-320.5 160,-583.5 160,-583.5 160,-589.5 154,-595.5 148,-595.5 148,-595.5 34,-595.5 34,-595.5 28,-595.5 22,-589.5 22,-583.5 22,-583.5 22,-320.5 22,-320.5 22,-314.5 28,-308.5 34,-308.5"/>
<text text-anchor="middle" x="91" y="-580.3" font-family="Times,serif" font-size="14.00">TasksController</text>
<polyline fill="none" stroke="black" points="22,-572.5 160,-572.5 "/>
<text text-anchor="start" x="30" y="-557.3" font-family="Times,serif" font-size="14.00">agents</text>
<text text-anchor="start" x="30" y="-542.3" font-family="Times,serif" font-size="14.00">con</text>
<text text-anchor="start" x="30" y="-527.3" font-family="Times,serif" font-size="14.00">contact</text>
<text text-anchor="start" x="30" y="-512.3" font-family="Times,serif" font-size="14.00">contact_agent</text>
<text text-anchor="start" x="30" y="-497.3" font-family="Times,serif" font-size="14.00">home_simple</text>
<text text-anchor="start" x="30" y="-482.3" font-family="Times,serif" font-size="14.00">index</text>
<text text-anchor="start" x="30" y="-467.3" font-family="Times,serif" font-size="14.00">properties_detail</text>
<text text-anchor="start" x="30" y="-452.3" font-family="Times,serif" font-size="14.00">properties_filter</text>
<text text-anchor="start" x="30" y="-437.3" font-family="Times,serif" font-size="14.00">properties_map</text>
<text text-anchor="start" x="30" y="-422.3" font-family="Times,serif" font-size="14.00">search_results</text>
<text text-anchor="start" x="30" y="-407.3" font-family="Times,serif" font-size="14.00">sitemap</text>
<text text-anchor="start" x="30" y="-392.3" font-family="Times,serif" font-size="14.00">upload_step1</text>
<polyline fill="none" stroke="black" points="22,-384.5 160,-384.5 "/>
<text text-anchor="start" x="30" y="-369.3" font-family="Times,serif" font-size="14.00">_layout_from_proc</text>
<polyline fill="none" stroke="black" points="22,-361.5 160,-361.5 "/>
<text text-anchor="start" x="30" y="-346.3" font-family="Times,serif" font-size="14.00">_layout</text>
<text text-anchor="start" x="30" y="-331.3" font-family="Times,serif" font-size="14.00">con_params</text>
<text text-anchor="start" x="30" y="-316.3" font-family="Times,serif" font-size="14.00">contact_agent_params</text>
</g>
<!-- ConversationsController -->
<g id="node3" class="node"><title>ConversationsController</title>
<path fill="none" stroke="black" d="M12,-44.5C12,-44.5 137,-44.5 137,-44.5 143,-44.5 149,-50.5 149,-56.5 149,-56.5 149,-260.5 149,-260.5 149,-266.5 143,-272.5 137,-272.5 137,-272.5 12,-272.5 12,-272.5 6,-272.5 -2.84217e-14,-266.5 -2.84217e-14,-260.5 -2.84217e-14,-260.5 -2.84217e-14,-56.5 -2.84217e-14,-56.5 -2.84217e-14,-50.5 6,-44.5 12,-44.5"/>
<text text-anchor="middle" x="74.5" y="-257.3" font-family="Times,serif" font-size="14.00">ConversationsController</text>
<polyline fill="none" stroke="black" points="-2.84217e-14,-249.5 149,-249.5 "/>
<text text-anchor="start" x="8" y="-234.3" font-family="Times,serif" font-size="14.00">destroy</text>
<text text-anchor="start" x="8" y="-219.3" font-family="Times,serif" font-size="14.00">empty_trash</text>
<text text-anchor="start" x="8" y="-204.3" font-family="Times,serif" font-size="14.00">index</text>
<text text-anchor="start" x="8" y="-189.3" font-family="Times,serif" font-size="14.00">mark_as_read</text>
<text text-anchor="start" x="8" y="-174.3" font-family="Times,serif" font-size="14.00">reply</text>
<text text-anchor="start" x="8" y="-159.3" font-family="Times,serif" font-size="14.00">restore</text>
<text text-anchor="start" x="8" y="-144.3" font-family="Times,serif" font-size="14.00">show</text>
<polyline fill="none" stroke="black" points="-2.84217e-14,-136.5 149,-136.5 "/>
<polyline fill="none" stroke="black" points="-2.84217e-14,-112.5 149,-112.5 "/>
<text text-anchor="start" x="8" y="-97.3" font-family="Times,serif" font-size="14.00">_layout</text>
<text text-anchor="start" x="8" y="-82.3" font-family="Times,serif" font-size="14.00">get_box</text>
<text text-anchor="start" x="8" y="-67.3" font-family="Times,serif" font-size="14.00">get_conversation</text>
<text text-anchor="start" x="8" y="-52.3" font-family="Times,serif" font-size="14.00">get_mailbox</text>
</g>
<!-- MailsController -->
<g id="node4" class="node"><title>MailsController</title>
<path fill="none" stroke="black" d="M254,-594.5C254,-594.5 334,-594.5 334,-594.5 340,-594.5 346,-600.5 346,-606.5 346,-606.5 346,-765.5 346,-765.5 346,-771.5 340,-777.5 334,-777.5 334,-777.5 254,-777.5 254,-777.5 248,-777.5 242,-771.5 242,-765.5 242,-765.5 242,-606.5 242,-606.5 242,-600.5 248,-594.5 254,-594.5"/>
<text text-anchor="middle" x="294" y="-762.3" font-family="Times,serif" font-size="14.00">MailsController</text>
<polyline fill="none" stroke="black" points="242,-754.5 346,-754.5 "/>
<text text-anchor="start" x="250" y="-739.3" font-family="Times,serif" font-size="14.00">create</text>
<text text-anchor="start" x="250" y="-724.3" font-family="Times,serif" font-size="14.00">destroy</text>
<text text-anchor="start" x="250" y="-709.3" font-family="Times,serif" font-size="14.00">edit</text>
<text text-anchor="start" x="250" y="-694.3" font-family="Times,serif" font-size="14.00">index</text>
<text text-anchor="start" x="250" y="-679.3" font-family="Times,serif" font-size="14.00">new</text>
<text text-anchor="start" x="250" y="-664.3" font-family="Times,serif" font-size="14.00">show</text>
<text text-anchor="start" x="250" y="-649.3" font-family="Times,serif" font-size="14.00">update</text>
<polyline fill="none" stroke="black" points="242,-641.5 346,-641.5 "/>
<polyline fill="none" stroke="black" points="242,-617.5 346,-617.5 "/>
<text text-anchor="start" x="250" y="-602.3" font-family="Times,serif" font-size="14.00">_layout</text>
</g>
<!-- AdvertisementsController -->
<g id="node5" class="node"><title>AdvertisementsController</title>
<path fill="none" stroke="black" d="M408,-66.5C408,-66.5 542,-66.5 542,-66.5 548,-66.5 554,-72.5 554,-78.5 554,-78.5 554,-148.5 554,-148.5 554,-154.5 548,-160.5 542,-160.5 542,-160.5 408,-160.5 408,-160.5 402,-160.5 396,-154.5 396,-148.5 396,-148.5 396,-78.5 396,-78.5 396,-72.5 402,-66.5 408,-66.5"/>
<text text-anchor="middle" x="475" y="-145.3" font-family="Times,serif" font-size="14.00">AdvertisementsController</text>
<polyline fill="none" stroke="black" points="396,-137.5 554,-137.5 "/>
<polyline fill="none" stroke="black" points="396,-113.5 554,-113.5 "/>
<polyline fill="none" stroke="black" points="396,-89.5 554,-89.5 "/>
<text text-anchor="start" x="404" y="-74.3" font-family="Times,serif" font-size="14.00">_layout</text>
</g>
<!-- ConfirmationsController -->
<g id="node6" class="node"><title>ConfirmationsController</title>
<path fill="none" stroke="black" d="M606,-330.5C606,-330.5 753,-330.5 753,-330.5 759,-330.5 765,-336.5 765,-342.5 765,-342.5 765,-411.5 765,-411.5 765,-417.5 759,-423.5 753,-423.5 753,-423.5 606,-423.5 606,-423.5 600,-423.5 594,-417.5 594,-411.5 594,-411.5 594,-342.5 594,-342.5 594,-336.5 600,-330.5 606,-330.5"/>
<text text-anchor="middle" x="679.5" y="-408.3" font-family="Times,serif" font-size="14.00">ConfirmationsController</text>
<polyline fill="none" stroke="black" points="594,-400.5 765,-400.5 "/>
<text text-anchor="start" x="602" y="-385.3" font-family="Times,serif" font-size="14.00">after_confirmation_path_for</text>
<polyline fill="none" stroke="black" points="594,-377.5 765,-377.5 "/>
<polyline fill="none" stroke="black" points="594,-353.5 765,-353.5 "/>
<text text-anchor="start" x="602" y="-338.3" font-family="Times,serif" font-size="14.00">_layout</text>
</g>
<!-- MessagesController -->
<g id="node7" class="node"><title>MessagesController</title>
<path fill="none" stroke="black" d="M606,-616.5C606,-616.5 707,-616.5 707,-616.5 713,-616.5 719,-622.5 719,-628.5 719,-628.5 719,-712.5 719,-712.5 719,-718.5 713,-724.5 707,-724.5 707,-724.5 606,-724.5 606,-724.5 600,-724.5 594,-718.5 594,-712.5 594,-712.5 594,-628.5 594,-628.5 594,-622.5 600,-616.5 606,-616.5"/>
<text text-anchor="middle" x="656.5" y="-709.3" font-family="Times,serif" font-size="14.00">MessagesController</text>
<polyline fill="none" stroke="black" points="594,-701.5 719,-701.5 "/>
<text text-anchor="start" x="602" y="-686.3" font-family="Times,serif" font-size="14.00">create</text>
<text text-anchor="start" x="602" y="-671.3" font-family="Times,serif" font-size="14.00">new</text>
<polyline fill="none" stroke="black" points="594,-663.5 719,-663.5 "/>
<polyline fill="none" stroke="black" points="594,-639.5 719,-639.5 "/>
<text text-anchor="start" x="602" y="-624.3" font-family="Times,serif" font-size="14.00">_layout</text>
</g>
<!-- PropertiesController -->
<g id="node8" class="node"><title>PropertiesController</title>
<path fill="none" stroke="black" d="M210,-44.5C210,-44.5 352,-44.5 352,-44.5 358,-44.5 364,-50.5 364,-56.5 364,-56.5 364,-544.5 364,-544.5 364,-550.5 358,-556.5 352,-556.5 352,-556.5 210,-556.5 210,-556.5 204,-556.5 198,-550.5 198,-544.5 198,-544.5 198,-56.5 198,-56.5 198,-50.5 204,-44.5 210,-44.5"/>
<text text-anchor="middle" x="281" y="-541.3" font-family="Times,serif" font-size="14.00">PropertiesController</text>
<polyline fill="none" stroke="black" points="198,-533.5 364,-533.5 "/>
<text text-anchor="start" x="206" y="-518.3" font-family="Times,serif" font-size="14.00">ad</text>
<text text-anchor="start" x="206" y="-503.3" font-family="Times,serif" font-size="14.00">advertisements</text>
<text text-anchor="start" x="206" y="-488.3" font-family="Times,serif" font-size="14.00">approve</text>
<text text-anchor="start" x="206" y="-473.3" font-family="Times,serif" font-size="14.00">approve_property</text>
<text text-anchor="start" x="206" y="-458.3" font-family="Times,serif" font-size="14.00">broucher</text>
<text text-anchor="start" x="206" y="-443.3" font-family="Times,serif" font-size="14.00">confirm_landlord_payment</text>
<text text-anchor="start" x="206" y="-428.3" font-family="Times,serif" font-size="14.00">confirm_tenant_payment</text>
<text text-anchor="start" x="206" y="-413.3" font-family="Times,serif" font-size="14.00">connect_facebook</text>
<text text-anchor="start" x="206" y="-398.3" font-family="Times,serif" font-size="14.00">create</text>
<text text-anchor="start" x="206" y="-383.3" font-family="Times,serif" font-size="14.00">destroy</text>
<text text-anchor="start" x="206" y="-368.3" font-family="Times,serif" font-size="14.00">disconnect_fb</text>
<text text-anchor="start" x="206" y="-353.3" font-family="Times,serif" font-size="14.00">edit</text>
<text text-anchor="start" x="206" y="-338.3" font-family="Times,serif" font-size="14.00">facebook_share</text>
<text text-anchor="start" x="206" y="-323.3" font-family="Times,serif" font-size="14.00">get_fb_token</text>
<text text-anchor="start" x="206" y="-308.3" font-family="Times,serif" font-size="14.00">index</text>
<text text-anchor="start" x="206" y="-293.3" font-family="Times,serif" font-size="14.00">landlord_payment</text>
<text text-anchor="start" x="206" y="-278.3" font-family="Times,serif" font-size="14.00">my_plan</text>
<text text-anchor="start" x="206" y="-263.3" font-family="Times,serif" font-size="14.00">new</text>
<text text-anchor="start" x="206" y="-248.3" font-family="Times,serif" font-size="14.00">pay</text>
<text text-anchor="start" x="206" y="-233.3" font-family="Times,serif" font-size="14.00">pay_plans</text>
<text text-anchor="start" x="206" y="-218.3" font-family="Times,serif" font-size="14.00">pdf_handle</text>
<text text-anchor="start" x="206" y="-203.3" font-family="Times,serif" font-size="14.00">search_property</text>
<text text-anchor="start" x="206" y="-188.3" font-family="Times,serif" font-size="14.00">show</text>
<text text-anchor="start" x="206" y="-173.3" font-family="Times,serif" font-size="14.00">tenant_search</text>
<text text-anchor="start" x="206" y="-158.3" font-family="Times,serif" font-size="14.00">tenant_search_result</text>
<text text-anchor="start" x="206" y="-143.3" font-family="Times,serif" font-size="14.00">tenant_searching</text>
<text text-anchor="start" x="206" y="-128.3" font-family="Times,serif" font-size="14.00">update</text>
<polyline fill="none" stroke="black" points="198,-120.5 364,-120.5 "/>
<text text-anchor="start" x="206" y="-105.3" font-family="Times,serif" font-size="14.00">_layout_from_proc</text>
<polyline fill="none" stroke="black" points="198,-97.5 364,-97.5 "/>
<text text-anchor="start" x="206" y="-82.3" font-family="Times,serif" font-size="14.00">_layout</text>
<text text-anchor="start" x="206" y="-67.3" font-family="Times,serif" font-size="14.00">property_params</text>
<text text-anchor="start" x="206" y="-52.3" font-family="Times,serif" font-size="14.00">set_property</text>
</g>
<!-- ScreensController -->
<g id="node9" class="node"><title>ScreensController</title>
<path fill="none" stroke="black" d="M408,-198.5C408,-198.5 536,-198.5 536,-198.5 542,-198.5 548,-204.5 548,-210.5 548,-210.5 548,-698.5 548,-698.5 548,-704.5 542,-710.5 536,-710.5 536,-710.5 408,-710.5 408,-710.5 402,-710.5 396,-704.5 396,-698.5 396,-698.5 396,-210.5 396,-210.5 396,-204.5 402,-198.5 408,-198.5"/>
<text text-anchor="middle" x="472" y="-695.3" font-family="Times,serif" font-size="14.00">ScreensController</text>
<polyline fill="none" stroke="black" points="396,-687.5 548,-687.5 "/>
<text text-anchor="start" x="404" y="-672.3" font-family="Times,serif" font-size="14.00">api_for_dashing</text>
<text text-anchor="start" x="404" y="-657.3" font-family="Times,serif" font-size="14.00">bigscreen</text>
<text text-anchor="start" x="404" y="-642.3" font-family="Times,serif" font-size="14.00">community</text>
<text text-anchor="start" x="404" y="-627.3" font-family="Times,serif" font-size="14.00">cycle</text>
<text text-anchor="start" x="404" y="-612.3" font-family="Times,serif" font-size="14.00">delete_file_from_s3</text>
<text text-anchor="start" x="404" y="-597.3" font-family="Times,serif" font-size="14.00">featured_properties</text>
<text text-anchor="start" x="404" y="-582.3" font-family="Times,serif" font-size="14.00">impress</text>
<text text-anchor="start" x="404" y="-567.3" font-family="Times,serif" font-size="14.00">landlords</text>
<text text-anchor="start" x="404" y="-552.3" font-family="Times,serif" font-size="14.00">mail_merge</text>
<text text-anchor="start" x="404" y="-537.3" font-family="Times,serif" font-size="14.00">mail_merge_uploadfile</text>
<text text-anchor="start" x="404" y="-522.3" font-family="Times,serif" font-size="14.00">mobiles</text>
<text text-anchor="start" x="404" y="-507.3" font-family="Times,serif" font-size="14.00">newest</text>
<text text-anchor="start" x="404" y="-492.3" font-family="Times,serif" font-size="14.00">newest_properties_detail</text>
<text text-anchor="start" x="404" y="-477.3" font-family="Times,serif" font-size="14.00">oldest</text>
<text text-anchor="start" x="404" y="-462.3" font-family="Times,serif" font-size="14.00">oldest_properties_detail</text>
<text text-anchor="start" x="404" y="-447.3" font-family="Times,serif" font-size="14.00">page1</text>
<text text-anchor="start" x="404" y="-432.3" font-family="Times,serif" font-size="14.00">page2</text>
<text text-anchor="start" x="404" y="-417.3" font-family="Times,serif" font-size="14.00">phones</text>
<text text-anchor="start" x="404" y="-402.3" font-family="Times,serif" font-size="14.00">provisioning</text>
<text text-anchor="start" x="404" y="-387.3" font-family="Times,serif" font-size="14.00">provisioning_files</text>
<text text-anchor="start" x="404" y="-372.3" font-family="Times,serif" font-size="14.00">random_properties</text>
<text text-anchor="start" x="404" y="-357.3" font-family="Times,serif" font-size="14.00">screen1</text>
<text text-anchor="start" x="404" y="-342.3" font-family="Times,serif" font-size="14.00">screen2</text>
<text text-anchor="start" x="404" y="-327.3" font-family="Times,serif" font-size="14.00">screen3</text>
<text text-anchor="start" x="404" y="-312.3" font-family="Times,serif" font-size="14.00">screen_properties_detail</text>
<text text-anchor="start" x="404" y="-297.3" font-family="Times,serif" font-size="14.00">services</text>
<text text-anchor="start" x="404" y="-282.3" font-family="Times,serif" font-size="14.00">tenants</text>
<text text-anchor="start" x="404" y="-267.3" font-family="Times,serif" font-size="14.00">update_screen_status</text>
<text text-anchor="start" x="404" y="-252.3" font-family="Times,serif" font-size="14.00">uploadfile</text>
<polyline fill="none" stroke="black" points="396,-244.5 548,-244.5 "/>
<text text-anchor="start" x="404" y="-229.3" font-family="Times,serif" font-size="14.00">_layout_from_proc</text>
<polyline fill="none" stroke="black" points="396,-221.5 548,-221.5 "/>
<text text-anchor="start" x="404" y="-206.3" font-family="Times,serif" font-size="14.00">_layout</text>
</g>
<!-- ApplicationController -->
<g id="node10" class="node"><title>ApplicationController</title>
<path fill="none" stroke="black" d="M606,-462.5C606,-462.5 738,-462.5 738,-462.5 744,-462.5 750,-468.5 750,-474.5 750,-474.5 750,-558.5 750,-558.5 750,-564.5 744,-570.5 738,-570.5 738,-570.5 606,-570.5 606,-570.5 600,-570.5 594,-564.5 594,-558.5 594,-558.5 594,-474.5 594,-474.5 594,-468.5 600,-462.5 606,-462.5"/>
<text text-anchor="middle" x="672" y="-555.3" font-family="Times,serif" font-size="14.00">ApplicationController</text>
<polyline fill="none" stroke="black" points="594,-547.5 750,-547.5 "/>
<text text-anchor="start" x="602" y="-532.3" font-family="Times,serif" font-size="14.00">configure_devise_params</text>
<text text-anchor="start" x="602" y="-517.3" font-family="Times,serif" font-size="14.00">redirect_back_or</text>
<polyline fill="none" stroke="black" points="594,-509.5 750,-509.5 "/>
<polyline fill="none" stroke="black" points="594,-485.5 750,-485.5 "/>
<text text-anchor="start" x="602" y="-470.3" font-family="Times,serif" font-size="14.00">_layout</text>
</g>
<!-- Dashing::WidgetsController -->
<g id="node11" class="node"><title>Dashing::WidgetsController</title>
<path fill="none" stroke="black" d="M606,-0.5C606,-0.5 752,-0.5 752,-0.5 758,-0.5 764,-6.5 764,-12.5 764,-12.5 764,-171.5 764,-171.5 764,-177.5 758,-183.5 752,-183.5 752,-183.5 606,-183.5 606,-183.5 600,-183.5 594,-177.5 594,-171.5 594,-171.5 594,-12.5 594,-12.5 594,-6.5 600,-0.5 606,-0.5"/>
<text text-anchor="middle" x="679" y="-168.3" font-family="Times,serif" font-size="14.00">Dashing::WidgetsController</text>
<polyline fill="none" stroke="black" points="594,-160.5 764,-160.5 "/>
<text text-anchor="start" x="602" y="-145.3" font-family="Times,serif" font-size="14.00">show</text>
<text text-anchor="start" x="602" y="-130.3" font-family="Times,serif" font-size="14.00">update</text>
<polyline fill="none" stroke="black" points="594,-122.5 764,-122.5 "/>
<polyline fill="none" stroke="black" points="594,-98.5 764,-98.5 "/>
<text text-anchor="start" x="602" y="-83.3" font-family="Times,serif" font-size="14.00">_layout</text>
<text text-anchor="start" x="602" y="-68.3" font-family="Times,serif" font-size="14.00">check_widget_name</text>
<text text-anchor="start" x="602" y="-53.3" font-family="Times,serif" font-size="14.00">main_app_view_path</text>
<text text-anchor="start" x="602" y="-38.3" font-family="Times,serif" font-size="14.00">prepend_view_paths</text>
<text text-anchor="start" x="602" y="-23.3" font-family="Times,serif" font-size="14.00">template_not_found</text>
<text text-anchor="start" x="602" y="-8.3" font-family="Times,serif" font-size="14.00">widget_path</text>
</g>
</g>
</svg>
