<?xml version="1.0" encoding="UTF-8" standalone="no"?>
<!DOCTYPE svg PUBLIC "-//W3C//DTD SVG 1.1//EN"
 "http://www.w3.org/Graphics/SVG/1.1/DTD/svg11.dtd">
<!-- Generated by graphviz version 2.36.0 (20140111.2315)
 -->
<!-- Title: models_diagram Pages: 1 -->
<svg width="2676pt" height="1310pt"
 viewBox="0.00 0.00 2676.00 1310.00" xmlns="http://www.w3.org/2000/svg" xmlns:xlink="http://www.w3.org/1999/xlink">
<g id="graph0" class="graph" transform="scale(1 1) rotate(0) translate(4 1306)">
<title>models_diagram</title>
<polygon fill="white" stroke="none" points="-4,4 -4,-1306 2672,-1306 2672,4 -4,4"/>
<!-- _diagram_info -->
<g id="node1" class="node"><title>_diagram_info</title>
<text text-anchor="start" x="8" y="-1115.6" font-family="Times,serif" font-size="13.00">Models diagram</text>
<text text-anchor="start" x="8" y="-1101.6" font-family="Times,serif" font-size="13.00">Date: Jun 12 2015 &#45; 14:21</text>
<text text-anchor="start" x="8" y="-1087.6" font-family="Times,serif" font-size="13.00">Migration version: 20150605145700</text>
<text text-anchor="start" x="8" y="-1073.6" font-family="Times,serif" font-size="13.00">Generated by RailRoady 1.3.0</text>
<text text-anchor="start" x="8" y="-1059.6" font-family="Times,serif" font-size="13.00">http://railroady.prestonlee.com</text>
</g>
<!-- News -->
<g id="node2" class="node"><title>News</title>
<path fill="none" stroke="black" d="M244.5,-1030.5C244.5,-1030.5 351.5,-1030.5 351.5,-1030.5 357.5,-1030.5 363.5,-1036.5 363.5,-1042.5 363.5,-1042.5 363.5,-1139.5 363.5,-1139.5 363.5,-1145.5 357.5,-1151.5 351.5,-1151.5 351.5,-1151.5 244.5,-1151.5 244.5,-1151.5 238.5,-1151.5 232.5,-1145.5 232.5,-1139.5 232.5,-1139.5 232.5,-1042.5 232.5,-1042.5 232.5,-1036.5 238.5,-1030.5 244.5,-1030.5"/>
<text text-anchor="middle" x="298" y="-1136.3" font-family="Times,serif" font-size="14.00">News</text>
<polyline fill="none" stroke="black" points="232.5,-1128.5 363.5,-1128.5 "/>
<text text-anchor="start" x="240.5" y="-1113.3" font-family="Times,serif" font-size="14.00">id :integer</text>
<text text-anchor="start" x="240.5" y="-1098.3" font-family="Times,serif" font-size="14.00">title :string</text>
<text text-anchor="start" x="240.5" y="-1083.3" font-family="Times,serif" font-size="14.00">description :text</text>
<text text-anchor="start" x="240.5" y="-1068.3" font-family="Times,serif" font-size="14.00">image :string</text>
<text text-anchor="start" x="240.5" y="-1053.3" font-family="Times,serif" font-size="14.00">created_at :datetime</text>
<text text-anchor="start" x="240.5" y="-1038.3" font-family="Times,serif" font-size="14.00">updated_at :datetime</text>
</g>
<!-- Mobile -->
<g id="node3" class="node"><title>Mobile</title>
<path fill="none" stroke="black" d="M393.5,-1038C393.5,-1038 500.5,-1038 500.5,-1038 506.5,-1038 512.5,-1044 512.5,-1050 512.5,-1050 512.5,-1132 512.5,-1132 512.5,-1138 506.5,-1144 500.5,-1144 500.5,-1144 393.5,-1144 393.5,-1144 387.5,-1144 381.5,-1138 381.5,-1132 381.5,-1132 381.5,-1050 381.5,-1050 381.5,-1044 387.5,-1038 393.5,-1038"/>
<text text-anchor="middle" x="447" y="-1128.8" font-family="Times,serif" font-size="14.00">Mobile</text>
<polyline fill="none" stroke="black" points="381.5,-1121 512.5,-1121 "/>
<text text-anchor="start" x="389.5" y="-1105.8" font-family="Times,serif" font-size="14.00">id :integer</text>
<text text-anchor="start" x="389.5" y="-1090.8" font-family="Times,serif" font-size="14.00">name :string</text>
<text text-anchor="start" x="389.5" y="-1075.8" font-family="Times,serif" font-size="14.00">telephone :string</text>
<text text-anchor="start" x="389.5" y="-1060.8" font-family="Times,serif" font-size="14.00">created_at :datetime</text>
<text text-anchor="start" x="389.5" y="-1045.8" font-family="Times,serif" font-size="14.00">updated_at :datetime</text>
</g>
<!-- Ability -->
<g id="node4" class="node"><title>Ability</title>
<polygon fill="none" stroke="black" points="530.5,-1068 530.5,-1114 585.5,-1114 585.5,-1068 530.5,-1068"/>
<text text-anchor="middle" x="558" y="-1098.8" font-family="Times,serif" font-size="14.00">Ability</text>
<polyline fill="none" stroke="black" points="530.5,-1091 585.5,-1091 "/>
<text text-anchor="middle" x="558" y="-1075.8" font-family="Times,serif" font-size="14.00"> </text>
</g>
<!-- Property -->
<g id="node5" class="node"><title>Property</title>
<path fill="none" stroke="black" d="M686.5,-1C686.5,-1 807.5,-1 807.5,-1 813.5,-1 819.5,-7 819.5,-13 819.5,-13 819.5,-815 819.5,-815 819.5,-821 813.5,-827 807.5,-827 807.5,-827 686.5,-827 686.5,-827 680.5,-827 674.5,-821 674.5,-815 674.5,-815 674.5,-13 674.5,-13 674.5,-7 680.5,-1 686.5,-1"/>
<text text-anchor="middle" x="747" y="-811.8" font-family="Times,serif" font-size="14.00">Property</text>
<polyline fill="none" stroke="black" points="674.5,-804 819.5,-804 "/>
<text text-anchor="start" x="682.5" y="-788.8" font-family="Times,serif" font-size="14.00">id :integer</text>
<text text-anchor="start" x="682.5" y="-773.8" font-family="Times,serif" font-size="14.00">address1 :string</text>
<text text-anchor="start" x="682.5" y="-758.8" font-family="Times,serif" font-size="14.00">address2 :string</text>
<text text-anchor="start" x="682.5" y="-743.8" font-family="Times,serif" font-size="14.00">address3 :string</text>
<text text-anchor="start" x="682.5" y="-728.8" font-family="Times,serif" font-size="14.00">amount :decimal</text>
<text text-anchor="start" x="682.5" y="-713.8" font-family="Times,serif" font-size="14.00">bath :integer</text>
<text text-anchor="start" x="682.5" y="-698.8" font-family="Times,serif" font-size="14.00">beds :integer</text>
<text text-anchor="start" x="682.5" y="-683.8" font-family="Times,serif" font-size="14.00">parking :boolean</text>
<text text-anchor="start" x="682.5" y="-668.8" font-family="Times,serif" font-size="14.00">image1 :string</text>
<text text-anchor="start" x="682.5" y="-653.8" font-family="Times,serif" font-size="14.00">image2 :string</text>
<text text-anchor="start" x="682.5" y="-638.8" font-family="Times,serif" font-size="14.00">image3 :string</text>
<text text-anchor="start" x="682.5" y="-623.8" font-family="Times,serif" font-size="14.00">image4 :string</text>
<text text-anchor="start" x="682.5" y="-608.8" font-family="Times,serif" font-size="14.00">image5 :string</text>
<text text-anchor="start" x="682.5" y="-593.8" font-family="Times,serif" font-size="14.00">image6 :string</text>
<text text-anchor="start" x="682.5" y="-578.8" font-family="Times,serif" font-size="14.00">description :text</text>
<text text-anchor="start" x="682.5" y="-563.8" font-family="Times,serif" font-size="14.00">date :date</text>
<text text-anchor="start" x="682.5" y="-548.8" font-family="Times,serif" font-size="14.00">visibility :boolean</text>
<text text-anchor="start" x="682.5" y="-533.8" font-family="Times,serif" font-size="14.00">created_at :datetime</text>
<text text-anchor="start" x="682.5" y="-518.8" font-family="Times,serif" font-size="14.00">updated_at :datetime</text>
<text text-anchor="start" x="682.5" y="-503.8" font-family="Times,serif" font-size="14.00">category :string</text>
<text text-anchor="start" x="682.5" y="-488.8" font-family="Times,serif" font-size="14.00">price :decimal</text>
<text text-anchor="start" x="682.5" y="-473.8" font-family="Times,serif" font-size="14.00">name :string</text>
<text text-anchor="start" x="682.5" y="-458.8" font-family="Times,serif" font-size="14.00">postcode :string</text>
<text text-anchor="start" x="682.5" y="-443.8" font-family="Times,serif" font-size="14.00">sold :boolean</text>
<text text-anchor="start" x="682.5" y="-428.8" font-family="Times,serif" font-size="14.00">let :boolean</text>
<text text-anchor="start" x="682.5" y="-413.8" font-family="Times,serif" font-size="14.00">featured :boolean</text>
<text text-anchor="start" x="682.5" y="-398.8" font-family="Times,serif" font-size="14.00">s_date :date</text>
<text text-anchor="start" x="682.5" y="-383.8" font-family="Times,serif" font-size="14.00">l_date :date</text>
<text text-anchor="start" x="682.5" y="-368.8" font-family="Times,serif" font-size="14.00">r_date :date</text>
<text text-anchor="start" x="682.5" y="-353.8" font-family="Times,serif" font-size="14.00">user_id :integer</text>
<text text-anchor="start" x="682.5" y="-338.8" font-family="Times,serif" font-size="14.00">approve :boolean</text>
<text text-anchor="start" x="682.5" y="-323.8" font-family="Times,serif" font-size="14.00">payment :boolean</text>
<text text-anchor="start" x="682.5" y="-308.8" font-family="Times,serif" font-size="14.00">slug :string</text>
<text text-anchor="start" x="682.5" y="-293.8" font-family="Times,serif" font-size="14.00">validity :datetime</text>
<text text-anchor="start" x="682.5" y="-278.8" font-family="Times,serif" font-size="14.00">coordinates :string</text>
<text text-anchor="start" x="682.5" y="-263.8" font-family="Times,serif" font-size="14.00">agent_id :integer</text>
<text text-anchor="start" x="682.5" y="-248.8" font-family="Times,serif" font-size="14.00">image7 :string</text>
<text text-anchor="start" x="682.5" y="-233.8" font-family="Times,serif" font-size="14.00">image8 :string</text>
<text text-anchor="start" x="682.5" y="-218.8" font-family="Times,serif" font-size="14.00">image9 :string</text>
<text text-anchor="start" x="682.5" y="-203.8" font-family="Times,serif" font-size="14.00">image10 :string</text>
<text text-anchor="start" x="682.5" y="-188.8" font-family="Times,serif" font-size="14.00">latitude :float</text>
<text text-anchor="start" x="682.5" y="-173.8" font-family="Times,serif" font-size="14.00">longitude :float</text>
<text text-anchor="start" x="682.5" y="-158.8" font-family="Times,serif" font-size="14.00">radius :string</text>
<text text-anchor="start" x="682.5" y="-143.8" font-family="Times,serif" font-size="14.00">approval_status :string</text>
<text text-anchor="start" x="682.5" y="-128.8" font-family="Times,serif" font-size="14.00">short_description :text</text>
<text text-anchor="start" x="682.5" y="-113.8" font-family="Times,serif" font-size="14.00">gas_ch :boolean</text>
<text text-anchor="start" x="682.5" y="-98.8" font-family="Times,serif" font-size="14.00">glazing :boolean</text>
<text text-anchor="start" x="682.5" y="-83.8" font-family="Times,serif" font-size="14.00">parking_status :string</text>
<text text-anchor="start" x="682.5" y="-68.8" font-family="Times,serif" font-size="14.00">car :integer</text>
<text text-anchor="start" x="682.5" y="-53.8" font-family="Times,serif" font-size="14.00">tag_line :text</text>
<text text-anchor="start" x="682.5" y="-38.8" font-family="Times,serif" font-size="14.00">garden :boolean</text>
<text text-anchor="start" x="682.5" y="-23.8" font-family="Times,serif" font-size="14.00">dg :boolean</text>
<text text-anchor="start" x="682.5" y="-8.8" font-family="Times,serif" font-size="14.00">seal_approved :boolean</text>
</g>
<!-- DirectoryEntry -->
<g id="node6" class="node"><title>DirectoryEntry</title>
<path fill="none" stroke="black" d="M1074.5,-1038C1074.5,-1038 1181.5,-1038 1181.5,-1038 1187.5,-1038 1193.5,-1044 1193.5,-1050 1193.5,-1050 1193.5,-1132 1193.5,-1132 1193.5,-1138 1187.5,-1144 1181.5,-1144 1181.5,-1144 1074.5,-1144 1074.5,-1144 1068.5,-1144 1062.5,-1138 1062.5,-1132 1062.5,-1132 1062.5,-1050 1062.5,-1050 1062.5,-1044 1068.5,-1038 1074.5,-1038"/>
<text text-anchor="middle" x="1128" y="-1128.8" font-family="Times,serif" font-size="14.00">DirectoryEntry</text>
<polyline fill="none" stroke="black" points="1062.5,-1121 1193.5,-1121 "/>
<text text-anchor="start" x="1070.5" y="-1105.8" font-family="Times,serif" font-size="14.00">id :integer</text>
<text text-anchor="start" x="1070.5" y="-1090.8" font-family="Times,serif" font-size="14.00">Name :string</text>
<text text-anchor="start" x="1070.5" y="-1075.8" font-family="Times,serif" font-size="14.00">Telephone :string</text>
<text text-anchor="start" x="1070.5" y="-1060.8" font-family="Times,serif" font-size="14.00">created_at :datetime</text>
<text text-anchor="start" x="1070.5" y="-1045.8" font-family="Times,serif" font-size="14.00">updated_at :datetime</text>
</g>
<!-- Message -->
<g id="node7" class="node"><title>Message</title>
<path fill="none" stroke="black" d="M1249.5,-1008C1249.5,-1008 1356.5,-1008 1356.5,-1008 1362.5,-1008 1368.5,-1014 1368.5,-1020 1368.5,-1020 1368.5,-1162 1368.5,-1162 1368.5,-1168 1362.5,-1174 1356.5,-1174 1356.5,-1174 1249.5,-1174 1249.5,-1174 1243.5,-1174 1237.5,-1168 1237.5,-1162 1237.5,-1162 1237.5,-1020 1237.5,-1020 1237.5,-1014 1243.5,-1008 1249.5,-1008"/>
<text text-anchor="middle" x="1303" y="-1158.8" font-family="Times,serif" font-size="14.00">Message</text>
<polyline fill="none" stroke="black" points="1237.5,-1151 1368.5,-1151 "/>
<text text-anchor="start" x="1245.5" y="-1135.8" font-family="Times,serif" font-size="14.00">id :integer</text>
<text text-anchor="start" x="1245.5" y="-1120.8" font-family="Times,serif" font-size="14.00">subject :text</text>
<text text-anchor="start" x="1245.5" y="-1105.8" font-family="Times,serif" font-size="14.00">to :string</text>
<text text-anchor="start" x="1245.5" y="-1090.8" font-family="Times,serif" font-size="14.00">from :string</text>
<text text-anchor="start" x="1245.5" y="-1075.8" font-family="Times,serif" font-size="14.00">html_body :text</text>
<text text-anchor="start" x="1245.5" y="-1060.8" font-family="Times,serif" font-size="14.00">text_body :text</text>
<text text-anchor="start" x="1245.5" y="-1045.8" font-family="Times,serif" font-size="14.00">created_at :datetime</text>
<text text-anchor="start" x="1245.5" y="-1030.8" font-family="Times,serif" font-size="14.00">updated_at :datetime</text>
<text text-anchor="start" x="1245.5" y="-1015.8" font-family="Times,serif" font-size="14.00">date :string</text>
</g>
<!-- Attachment -->
<g id="node11" class="node"><title>Attachment</title>
<path fill="none" stroke="black" d="M1211.5,-338.5C1211.5,-338.5 1394.5,-338.5 1394.5,-338.5 1400.5,-338.5 1406.5,-344.5 1406.5,-350.5 1406.5,-350.5 1406.5,-477.5 1406.5,-477.5 1406.5,-483.5 1400.5,-489.5 1394.5,-489.5 1394.5,-489.5 1211.5,-489.5 1211.5,-489.5 1205.5,-489.5 1199.5,-483.5 1199.5,-477.5 1199.5,-477.5 1199.5,-350.5 1199.5,-350.5 1199.5,-344.5 1205.5,-338.5 1211.5,-338.5"/>
<text text-anchor="middle" x="1303" y="-474.3" font-family="Times,serif" font-size="14.00">Attachment</text>
<polyline fill="none" stroke="black" points="1199.5,-466.5 1406.5,-466.5 "/>
<text text-anchor="start" x="1207.5" y="-451.3" font-family="Times,serif" font-size="14.00">id :integer</text>
<text text-anchor="start" x="1207.5" y="-436.3" font-family="Times,serif" font-size="14.00">attached_file_file_name :string</text>
<text text-anchor="start" x="1207.5" y="-421.3" font-family="Times,serif" font-size="14.00">attached_file_content_type :string</text>
<text text-anchor="start" x="1207.5" y="-406.3" font-family="Times,serif" font-size="14.00">attached_file_file_size :integer</text>
<text text-anchor="start" x="1207.5" y="-391.3" font-family="Times,serif" font-size="14.00">attached_file_updated_at :datetime</text>
<text text-anchor="start" x="1207.5" y="-376.3" font-family="Times,serif" font-size="14.00">created_at :datetime</text>
<text text-anchor="start" x="1207.5" y="-361.3" font-family="Times,serif" font-size="14.00">updated_at :datetime</text>
<text text-anchor="start" x="1207.5" y="-346.3" font-family="Times,serif" font-size="14.00">message_id :integer</text>
</g>
<!-- Message&#45;&gt;Attachment -->
<g id="edge1" class="edge"><title>Message&#45;&gt;Attachment</title>
<path fill="none" stroke="#08183f" d="M1303,-999.606C1303,-868.535 1303,-627.463 1303,-499.679"/>
<ellipse fill="none" stroke="#08183f" cx="1303" cy="-1003.91" rx="4" ry="4"/>
<polygon fill="#08183f" stroke="#08183f" points="1303,-499.551 1307.5,-489.551 1303,-494.551 1303,-489.551 1303,-489.551 1303,-489.551 1303,-494.551 1298.5,-489.551 1303,-499.551 1303,-499.551"/>
</g>
<!-- Contact -->
<g id="node8" class="node"><title>Contact</title>
<path fill="none" stroke="black" d="M1398.5,-1015.5C1398.5,-1015.5 1517.5,-1015.5 1517.5,-1015.5 1523.5,-1015.5 1529.5,-1021.5 1529.5,-1027.5 1529.5,-1027.5 1529.5,-1154.5 1529.5,-1154.5 1529.5,-1160.5 1523.5,-1166.5 1517.5,-1166.5 1517.5,-1166.5 1398.5,-1166.5 1398.5,-1166.5 1392.5,-1166.5 1386.5,-1160.5 1386.5,-1154.5 1386.5,-1154.5 1386.5,-1027.5 1386.5,-1027.5 1386.5,-1021.5 1392.5,-1015.5 1398.5,-1015.5"/>
<text text-anchor="middle" x="1458" y="-1151.3" font-family="Times,serif" font-size="14.00">Contact</text>
<polyline fill="none" stroke="black" points="1386.5,-1143.5 1529.5,-1143.5 "/>
<text text-anchor="start" x="1394.5" y="-1128.3" font-family="Times,serif" font-size="14.00">id :integer</text>
<text text-anchor="start" x="1394.5" y="-1113.3" font-family="Times,serif" font-size="14.00">first_name :string</text>
<text text-anchor="start" x="1394.5" y="-1098.3" font-family="Times,serif" font-size="14.00">last_name :string</text>
<text text-anchor="start" x="1394.5" y="-1083.3" font-family="Times,serif" font-size="14.00">email_id :string</text>
<text text-anchor="start" x="1394.5" y="-1068.3" font-family="Times,serif" font-size="14.00">contact_number :string</text>
<text text-anchor="start" x="1394.5" y="-1053.3" font-family="Times,serif" font-size="14.00">comments :string</text>
<text text-anchor="start" x="1394.5" y="-1038.3" font-family="Times,serif" font-size="14.00">created_at :datetime</text>
<text text-anchor="start" x="1394.5" y="-1023.3" font-family="Times,serif" font-size="14.00">updated_at :datetime</text>
</g>
<!-- Advertisement -->
<g id="node9" class="node"><title>Advertisement</title>
<path fill="none" stroke="black" d="M1559.5,-1008C1559.5,-1008 1666.5,-1008 1666.5,-1008 1672.5,-1008 1678.5,-1014 1678.5,-1020 1678.5,-1020 1678.5,-1162 1678.5,-1162 1678.5,-1168 1672.5,-1174 1666.5,-1174 1666.5,-1174 1559.5,-1174 1559.5,-1174 1553.5,-1174 1547.5,-1168 1547.5,-1162 1547.5,-1162 1547.5,-1020 1547.5,-1020 1547.5,-1014 1553.5,-1008 1559.5,-1008"/>
<text text-anchor="middle" x="1613" y="-1158.8" font-family="Times,serif" font-size="14.00">Advertisement</text>
<polyline fill="none" stroke="black" points="1547.5,-1151 1678.5,-1151 "/>
<text text-anchor="start" x="1555.5" y="-1135.8" font-family="Times,serif" font-size="14.00">id :integer</text>
<text text-anchor="start" x="1555.5" y="-1120.8" font-family="Times,serif" font-size="14.00">name :string</text>
<text text-anchor="start" x="1555.5" y="-1105.8" font-family="Times,serif" font-size="14.00">description :string</text>
<text text-anchor="start" x="1555.5" y="-1090.8" font-family="Times,serif" font-size="14.00">email :string</text>
<text text-anchor="start" x="1555.5" y="-1075.8" font-family="Times,serif" font-size="14.00">phone :string</text>
<text text-anchor="start" x="1555.5" y="-1060.8" font-family="Times,serif" font-size="14.00">image :string</text>
<text text-anchor="start" x="1555.5" y="-1045.8" font-family="Times,serif" font-size="14.00">expiry_date :date</text>
<text text-anchor="start" x="1555.5" y="-1030.8" font-family="Times,serif" font-size="14.00">created_at :datetime</text>
<text text-anchor="start" x="1555.5" y="-1015.8" font-family="Times,serif" font-size="14.00">updated_at :datetime</text>
</g>
<!-- Agent -->
<g id="node10" class="node"><title>Agent</title>
<path fill="none" stroke="black" d="M615.5,-1000.5C615.5,-1000.5 722.5,-1000.5 722.5,-1000.5 728.5,-1000.5 734.5,-1006.5 734.5,-1012.5 734.5,-1012.5 734.5,-1169.5 734.5,-1169.5 734.5,-1175.5 728.5,-1181.5 722.5,-1181.5 722.5,-1181.5 615.5,-1181.5 615.5,-1181.5 609.5,-1181.5 603.5,-1175.5 603.5,-1169.5 603.5,-1169.5 603.5,-1012.5 603.5,-1012.5 603.5,-1006.5 609.5,-1000.5 615.5,-1000.5"/>
<text text-anchor="middle" x="669" y="-1166.3" font-family="Times,serif" font-size="14.00">Agent</text>
<polyline fill="none" stroke="black" points="603.5,-1158.5 734.5,-1158.5 "/>
<text text-anchor="start" x="611.5" y="-1143.3" font-family="Times,serif" font-size="14.00">id :integer</text>
<text text-anchor="start" x="611.5" y="-1128.3" font-family="Times,serif" font-size="14.00">name :string</text>
<text text-anchor="start" x="611.5" y="-1113.3" font-family="Times,serif" font-size="14.00">address :string</text>
<text text-anchor="start" x="611.5" y="-1098.3" font-family="Times,serif" font-size="14.00">phone :string</text>
<text text-anchor="start" x="611.5" y="-1083.3" font-family="Times,serif" font-size="14.00">image :string</text>
<text text-anchor="start" x="611.5" y="-1068.3" font-family="Times,serif" font-size="14.00">created_at :datetime</text>
<text text-anchor="start" x="611.5" y="-1053.3" font-family="Times,serif" font-size="14.00">updated_at :datetime</text>
<text text-anchor="start" x="611.5" y="-1038.3" font-family="Times,serif" font-size="14.00">email_id :string</text>
<text text-anchor="start" x="611.5" y="-1023.3" font-family="Times,serif" font-size="14.00">fb_id :string</text>
<text text-anchor="start" x="611.5" y="-1008.3" font-family="Times,serif" font-size="14.00">twitter_id :string</text>
</g>
<!-- Agent&#45;&gt;Property -->
<g id="edge2" class="edge"><title>Agent&#45;&gt;Property</title>
<path fill="none" stroke="#469b1c" d="M680.294,-992.263C685.289,-949.04 691.537,-894.97 698.192,-837.373"/>
<ellipse fill="none" stroke="#469b1c" cx="679.817" cy="-996.392" rx="4.00001" ry="4.00001"/>
<polygon fill="#469b1c" stroke="#469b1c" points="698.203,-837.277 703.822,-827.86 698.777,-832.31 699.351,-827.343 699.351,-827.343 699.351,-827.343 698.777,-832.31 694.881,-826.826 698.203,-837.277 698.203,-837.277"/>
</g>
<!-- ContactAgent -->
<g id="node14" class="node"><title>ContactAgent</title>
<path fill="none" stroke="black" d="M537.5,-346C537.5,-346 644.5,-346 644.5,-346 650.5,-346 656.5,-352 656.5,-358 656.5,-358 656.5,-470 656.5,-470 656.5,-476 650.5,-482 644.5,-482 644.5,-482 537.5,-482 537.5,-482 531.5,-482 525.5,-476 525.5,-470 525.5,-470 525.5,-358 525.5,-358 525.5,-352 531.5,-346 537.5,-346"/>
<text text-anchor="middle" x="591" y="-466.8" font-family="Times,serif" font-size="14.00">ContactAgent</text>
<polyline fill="none" stroke="black" points="525.5,-459 656.5,-459 "/>
<text text-anchor="start" x="533.5" y="-443.8" font-family="Times,serif" font-size="14.00">id :integer</text>
<text text-anchor="start" x="533.5" y="-428.8" font-family="Times,serif" font-size="14.00">name :string</text>
<text text-anchor="start" x="533.5" y="-413.8" font-family="Times,serif" font-size="14.00">email :string</text>
<text text-anchor="start" x="533.5" y="-398.8" font-family="Times,serif" font-size="14.00">message :string</text>
<text text-anchor="start" x="533.5" y="-383.8" font-family="Times,serif" font-size="14.00">created_at :datetime</text>
<text text-anchor="start" x="533.5" y="-368.8" font-family="Times,serif" font-size="14.00">updated_at :datetime</text>
<text text-anchor="start" x="533.5" y="-353.8" font-family="Times,serif" font-size="14.00">agent_id :integer</text>
</g>
<!-- Agent&#45;&gt;ContactAgent -->
<g id="edge3" class="edge"><title>Agent&#45;&gt;ContactAgent</title>
<path fill="none" stroke="#b51ee7" d="M657.698,-992.19C642.068,-856.934 614.174,-615.544 599.92,-492.192"/>
<ellipse fill="none" stroke="#b51ee7" cx="658.183" cy="-996.392" rx="4.00001" ry="4.00001"/>
<polygon fill="#b51ee7" stroke="#b51ee7" points="599.899,-492.008 603.221,-481.557 599.325,-487.041 598.751,-482.074 598.751,-482.074 598.751,-482.074 599.325,-487.041 594.281,-482.591 599.899,-492.008 599.899,-492.008"/>
</g>
<!-- Service -->
<g id="node12" class="node"><title>Service</title>
<path fill="none" stroke="black" d="M1708.5,-1038C1708.5,-1038 1815.5,-1038 1815.5,-1038 1821.5,-1038 1827.5,-1044 1827.5,-1050 1827.5,-1050 1827.5,-1132 1827.5,-1132 1827.5,-1138 1821.5,-1144 1815.5,-1144 1815.5,-1144 1708.5,-1144 1708.5,-1144 1702.5,-1144 1696.5,-1138 1696.5,-1132 1696.5,-1132 1696.5,-1050 1696.5,-1050 1696.5,-1044 1702.5,-1038 1708.5,-1038"/>
<text text-anchor="middle" x="1762" y="-1128.8" font-family="Times,serif" font-size="14.00">Service</text>
<polyline fill="none" stroke="black" points="1696.5,-1121 1827.5,-1121 "/>
<text text-anchor="start" x="1704.5" y="-1105.8" font-family="Times,serif" font-size="14.00">id :integer</text>
<text text-anchor="start" x="1704.5" y="-1090.8" font-family="Times,serif" font-size="14.00">name :string</text>
<text text-anchor="start" x="1704.5" y="-1075.8" font-family="Times,serif" font-size="14.00">telephone :string</text>
<text text-anchor="start" x="1704.5" y="-1060.8" font-family="Times,serif" font-size="14.00">created_at :datetime</text>
<text text-anchor="start" x="1704.5" y="-1045.8" font-family="Times,serif" font-size="14.00">updated_at :datetime</text>
</g>
<!-- Setting -->
<g id="node13" class="node"><title>Setting</title>
<path fill="none" stroke="black" d="M1857.5,-1030.5C1857.5,-1030.5 1990.5,-1030.5 1990.5,-1030.5 1996.5,-1030.5 2002.5,-1036.5 2002.5,-1042.5 2002.5,-1042.5 2002.5,-1139.5 2002.5,-1139.5 2002.5,-1145.5 1996.5,-1151.5 1990.5,-1151.5 1990.5,-1151.5 1857.5,-1151.5 1857.5,-1151.5 1851.5,-1151.5 1845.5,-1145.5 1845.5,-1139.5 1845.5,-1139.5 1845.5,-1042.5 1845.5,-1042.5 1845.5,-1036.5 1851.5,-1030.5 1857.5,-1030.5"/>
<text text-anchor="middle" x="1924" y="-1136.3" font-family="Times,serif" font-size="14.00">Setting</text>
<polyline fill="none" stroke="black" points="1845.5,-1128.5 2002.5,-1128.5 "/>
<text text-anchor="start" x="1853.5" y="-1113.3" font-family="Times,serif" font-size="14.00">id :integer</text>
<text text-anchor="start" x="1853.5" y="-1098.3" font-family="Times,serif" font-size="14.00">admin_image :string</text>
<text text-anchor="start" x="1853.5" y="-1083.3" font-family="Times,serif" font-size="14.00">admin_text :string</text>
<text text-anchor="start" x="1853.5" y="-1068.3" font-family="Times,serif" font-size="14.00">created_at :datetime</text>
<text text-anchor="start" x="1853.5" y="-1053.3" font-family="Times,serif" font-size="14.00">updated_at :datetime</text>
<text text-anchor="start" x="1853.5" y="-1038.3" font-family="Times,serif" font-size="14.00">property_description :text</text>
</g>
<!-- AdminUser -->
<g id="node15" class="node"><title>AdminUser</title>
<path fill="none" stroke="black" d="M2033,-978C2033,-978 2209,-978 2209,-978 2215,-978 2221,-984 2221,-990 2221,-990 2221,-1192 2221,-1192 2221,-1198 2215,-1204 2209,-1204 2209,-1204 2033,-1204 2033,-1204 2027,-1204 2021,-1198 2021,-1192 2021,-1192 2021,-990 2021,-990 2021,-984 2027,-978 2033,-978"/>
<text text-anchor="middle" x="2121" y="-1188.8" font-family="Times,serif" font-size="14.00">AdminUser</text>
<polyline fill="none" stroke="black" points="2021,-1181 2221,-1181 "/>
<text text-anchor="start" x="2029" y="-1165.8" font-family="Times,serif" font-size="14.00">id :integer</text>
<text text-anchor="start" x="2029" y="-1150.8" font-family="Times,serif" font-size="14.00">email :string</text>
<text text-anchor="start" x="2029" y="-1135.8" font-family="Times,serif" font-size="14.00">encrypted_password :string</text>
<text text-anchor="start" x="2029" y="-1120.8" font-family="Times,serif" font-size="14.00">reset_password_token :string</text>
<text text-anchor="start" x="2029" y="-1105.8" font-family="Times,serif" font-size="14.00">reset_password_sent_at :datetime</text>
<text text-anchor="start" x="2029" y="-1090.8" font-family="Times,serif" font-size="14.00">remember_created_at :datetime</text>
<text text-anchor="start" x="2029" y="-1075.8" font-family="Times,serif" font-size="14.00">sign_in_count :integer</text>
<text text-anchor="start" x="2029" y="-1060.8" font-family="Times,serif" font-size="14.00">current_sign_in_at :datetime</text>
<text text-anchor="start" x="2029" y="-1045.8" font-family="Times,serif" font-size="14.00">last_sign_in_at :datetime</text>
<text text-anchor="start" x="2029" y="-1030.8" font-family="Times,serif" font-size="14.00">current_sign_in_ip :inet</text>
<text text-anchor="start" x="2029" y="-1015.8" font-family="Times,serif" font-size="14.00">last_sign_in_ip :inet</text>
<text text-anchor="start" x="2029" y="-1000.8" font-family="Times,serif" font-size="14.00">created_at :datetime</text>
<text text-anchor="start" x="2029" y="-985.8" font-family="Times,serif" font-size="14.00">updated_at :datetime</text>
</g>
<!-- MailMergeItem -->
<g id="node16" class="node"><title>MailMergeItem</title>
<path fill="none" stroke="black" d="M2244.5,-338.5C2244.5,-338.5 2365.5,-338.5 2365.5,-338.5 2371.5,-338.5 2377.5,-344.5 2377.5,-350.5 2377.5,-350.5 2377.5,-477.5 2377.5,-477.5 2377.5,-483.5 2371.5,-489.5 2365.5,-489.5 2365.5,-489.5 2244.5,-489.5 2244.5,-489.5 2238.5,-489.5 2232.5,-483.5 2232.5,-477.5 2232.5,-477.5 2232.5,-350.5 2232.5,-350.5 2232.5,-344.5 2238.5,-338.5 2244.5,-338.5"/>
<text text-anchor="middle" x="2305" y="-474.3" font-family="Times,serif" font-size="14.00">MailMergeItem</text>
<polyline fill="none" stroke="black" points="2232.5,-466.5 2377.5,-466.5 "/>
<text text-anchor="start" x="2240.5" y="-451.3" font-family="Times,serif" font-size="14.00">id :integer</text>
<text text-anchor="start" x="2240.5" y="-436.3" font-family="Times,serif" font-size="14.00">filename :string</text>
<text text-anchor="start" x="2240.5" y="-421.3" font-family="Times,serif" font-size="14.00">url :string</text>
<text text-anchor="start" x="2240.5" y="-406.3" font-family="Times,serif" font-size="14.00">m_type :string</text>
<text text-anchor="start" x="2240.5" y="-391.3" font-family="Times,serif" font-size="14.00">mail_merge_id :integer</text>
<text text-anchor="start" x="2240.5" y="-376.3" font-family="Times,serif" font-size="14.00">created_at :datetime</text>
<text text-anchor="start" x="2240.5" y="-361.3" font-family="Times,serif" font-size="14.00">updated_at :datetime</text>
<text text-anchor="start" x="2240.5" y="-346.3" font-family="Times,serif" font-size="14.00">pdf_url :string</text>
</g>
<!-- Provision -->
<g id="node17" class="node"><title>Provision</title>
<path fill="none" stroke="black" d="M2400.5,-1038C2400.5,-1038 2507.5,-1038 2507.5,-1038 2513.5,-1038 2519.5,-1044 2519.5,-1050 2519.5,-1050 2519.5,-1132 2519.5,-1132 2519.5,-1138 2513.5,-1144 2507.5,-1144 2507.5,-1144 2400.5,-1144 2400.5,-1144 2394.5,-1144 2388.5,-1138 2388.5,-1132 2388.5,-1132 2388.5,-1050 2388.5,-1050 2388.5,-1044 2394.5,-1038 2400.5,-1038"/>
<text text-anchor="middle" x="2454" y="-1128.8" font-family="Times,serif" font-size="14.00">Provision</text>
<polyline fill="none" stroke="black" points="2388.5,-1121 2519.5,-1121 "/>
<text text-anchor="start" x="2396.5" y="-1105.8" font-family="Times,serif" font-size="14.00">id :integer</text>
<text text-anchor="start" x="2396.5" y="-1090.8" font-family="Times,serif" font-size="14.00">name :string</text>
<text text-anchor="start" x="2396.5" y="-1075.8" font-family="Times,serif" font-size="14.00">url :string</text>
<text text-anchor="start" x="2396.5" y="-1060.8" font-family="Times,serif" font-size="14.00">created_at :datetime</text>
<text text-anchor="start" x="2396.5" y="-1045.8" font-family="Times,serif" font-size="14.00">updated_at :datetime</text>
</g>
<!-- MailMerge -->
<g id="node18" class="node"><title>MailMerge</title>
<path fill="none" stroke="black" d="M2251.5,-1030.5C2251.5,-1030.5 2358.5,-1030.5 2358.5,-1030.5 2364.5,-1030.5 2370.5,-1036.5 2370.5,-1042.5 2370.5,-1042.5 2370.5,-1139.5 2370.5,-1139.5 2370.5,-1145.5 2364.5,-1151.5 2358.5,-1151.5 2358.5,-1151.5 2251.5,-1151.5 2251.5,-1151.5 2245.5,-1151.5 2239.5,-1145.5 2239.5,-1139.5 2239.5,-1139.5 2239.5,-1042.5 2239.5,-1042.5 2239.5,-1036.5 2245.5,-1030.5 2251.5,-1030.5"/>
<text text-anchor="middle" x="2305" y="-1136.3" font-family="Times,serif" font-size="14.00">MailMerge</text>
<polyline fill="none" stroke="black" points="2239.5,-1128.5 2370.5,-1128.5 "/>
<text text-anchor="start" x="2247.5" y="-1113.3" font-family="Times,serif" font-size="14.00">id :integer</text>
<text text-anchor="start" x="2247.5" y="-1098.3" font-family="Times,serif" font-size="14.00">filename :string</text>
<text text-anchor="start" x="2247.5" y="-1083.3" font-family="Times,serif" font-size="14.00">url :string</text>
<text text-anchor="start" x="2247.5" y="-1068.3" font-family="Times,serif" font-size="14.00">m_type :string</text>
<text text-anchor="start" x="2247.5" y="-1053.3" font-family="Times,serif" font-size="14.00">created_at :datetime</text>
<text text-anchor="start" x="2247.5" y="-1038.3" font-family="Times,serif" font-size="14.00">updated_at :datetime</text>
</g>
<!-- MailMerge&#45;&gt;MailMergeItem -->
<g id="edge4" class="edge"><title>MailMerge&#45;&gt;MailMergeItem</title>
<path fill="none" stroke="#27fb8c" d="M2305,-1022.23C2305,-898.316 2305,-635.483 2305,-499.875"/>
<ellipse fill="none" stroke="#27fb8c" cx="2305" cy="-1026.39" rx="4" ry="4"/>
<polygon fill="#27fb8c" stroke="#27fb8c" points="2305,-499.541 2309.5,-489.54 2305,-494.541 2305,-489.541 2305,-489.541 2305,-489.541 2305,-494.541 2300.5,-489.541 2305,-499.541 2305,-499.541"/>
</g>
<!-- Screen -->
<g id="node19" class="node"><title>Screen</title>
<path fill="none" stroke="black" d="M2549.5,-1038C2549.5,-1038 2656.5,-1038 2656.5,-1038 2662.5,-1038 2668.5,-1044 2668.5,-1050 2668.5,-1050 2668.5,-1132 2668.5,-1132 2668.5,-1138 2662.5,-1144 2656.5,-1144 2656.5,-1144 2549.5,-1144 2549.5,-1144 2543.5,-1144 2537.5,-1138 2537.5,-1132 2537.5,-1132 2537.5,-1050 2537.5,-1050 2537.5,-1044 2543.5,-1038 2549.5,-1038"/>
<text text-anchor="middle" x="2603" y="-1128.8" font-family="Times,serif" font-size="14.00">Screen</text>
<polyline fill="none" stroke="black" points="2537.5,-1121 2668.5,-1121 "/>
<text text-anchor="start" x="2545.5" y="-1105.8" font-family="Times,serif" font-size="14.00">id :integer</text>
<text text-anchor="start" x="2545.5" y="-1090.8" font-family="Times,serif" font-size="14.00">name :string</text>
<text text-anchor="start" x="2545.5" y="-1075.8" font-family="Times,serif" font-size="14.00">status :boolean</text>
<text text-anchor="start" x="2545.5" y="-1060.8" font-family="Times,serif" font-size="14.00">created_at :datetime</text>
<text text-anchor="start" x="2545.5" y="-1045.8" font-family="Times,serif" font-size="14.00">updated_at :datetime</text>
</g>
<!-- User -->
<g id="node20" class="node"><title>User</title>
<path fill="none" stroke="black" d="M829,-880.5C829,-880.5 1005,-880.5 1005,-880.5 1011,-880.5 1017,-886.5 1017,-892.5 1017,-892.5 1017,-1289.5 1017,-1289.5 1017,-1295.5 1011,-1301.5 1005,-1301.5 1005,-1301.5 829,-1301.5 829,-1301.5 823,-1301.5 817,-1295.5 817,-1289.5 817,-1289.5 817,-892.5 817,-892.5 817,-886.5 823,-880.5 829,-880.5"/>
<text text-anchor="middle" x="917" y="-1286.3" font-family="Times,serif" font-size="14.00">User</text>
<polyline fill="none" stroke="black" points="817,-1278.5 1017,-1278.5 "/>
<text text-anchor="start" x="825" y="-1263.3" font-family="Times,serif" font-size="14.00">id :integer</text>
<text text-anchor="start" x="825" y="-1248.3" font-family="Times,serif" font-size="14.00">email :string</text>
<text text-anchor="start" x="825" y="-1233.3" font-family="Times,serif" font-size="14.00">encrypted_password :string</text>
<text text-anchor="start" x="825" y="-1218.3" font-family="Times,serif" font-size="14.00">reset_password_token :string</text>
<text text-anchor="start" x="825" y="-1203.3" font-family="Times,serif" font-size="14.00">reset_password_sent_at :datetime</text>
<text text-anchor="start" x="825" y="-1188.3" font-family="Times,serif" font-size="14.00">remember_created_at :datetime</text>
<text text-anchor="start" x="825" y="-1173.3" font-family="Times,serif" font-size="14.00">sign_in_count :integer</text>
<text text-anchor="start" x="825" y="-1158.3" font-family="Times,serif" font-size="14.00">current_sign_in_at :datetime</text>
<text text-anchor="start" x="825" y="-1143.3" font-family="Times,serif" font-size="14.00">last_sign_in_at :datetime</text>
<text text-anchor="start" x="825" y="-1128.3" font-family="Times,serif" font-size="14.00">current_sign_in_ip :string</text>
<text text-anchor="start" x="825" y="-1113.3" font-family="Times,serif" font-size="14.00">last_sign_in_ip :string</text>
<text text-anchor="start" x="825" y="-1098.3" font-family="Times,serif" font-size="14.00">confirmation_token :string</text>
<text text-anchor="start" x="825" y="-1083.3" font-family="Times,serif" font-size="14.00">confirmed_at :datetime</text>
<text text-anchor="start" x="825" y="-1068.3" font-family="Times,serif" font-size="14.00">confirmation_sent_at :datetime</text>
<text text-anchor="start" x="825" y="-1053.3" font-family="Times,serif" font-size="14.00">unconfirmed_email :string</text>
<text text-anchor="start" x="825" y="-1038.3" font-family="Times,serif" font-size="14.00">created_at :datetime</text>
<text text-anchor="start" x="825" y="-1023.3" font-family="Times,serif" font-size="14.00">updated_at :datetime</text>
<text text-anchor="start" x="825" y="-1008.3" font-family="Times,serif" font-size="14.00">username :string</text>
<text text-anchor="start" x="825" y="-993.3" font-family="Times,serif" font-size="14.00">address :string</text>
<text text-anchor="start" x="825" y="-978.3" font-family="Times,serif" font-size="14.00">phone :string</text>
<text text-anchor="start" x="825" y="-963.3" font-family="Times,serif" font-size="14.00">status :string</text>
<text text-anchor="start" x="825" y="-948.3" font-family="Times,serif" font-size="14.00">payment :boolean</text>
<text text-anchor="start" x="825" y="-933.3" font-family="Times,serif" font-size="14.00">search :string</text>
<text text-anchor="start" x="825" y="-918.3" font-family="Times,serif" font-size="14.00">fb_token :string</text>
<text text-anchor="start" x="825" y="-903.3" font-family="Times,serif" font-size="14.00">plan :string</text>
<text text-anchor="start" x="825" y="-888.3" font-family="Times,serif" font-size="14.00">validity :datetime</text>
</g>
<!-- User&#45;&gt;Property -->
<g id="edge5" class="edge"><title>User&#45;&gt;Property</title>
<path fill="none" stroke="#ade6cd" d="M841.547,-872.33C837.093,-857.391 832.861,-842.512 829,-828 826.636,-819.116 824.307,-810.108 822.015,-801.009"/>
<ellipse fill="none" stroke="#ade6cd" cx="842.745" cy="-876.316" rx="4.00001" ry="4.00001"/>
<polygon fill="#ade6cd" stroke="#ade6cd" points="821.964,-800.805 823.907,-790.013 820.753,-795.954 819.541,-791.103 819.541,-791.103 819.541,-791.103 820.753,-795.954 815.175,-792.193 821.964,-800.805 821.964,-800.805"/>
</g>
<!-- Mailboxer::Message -->
<g id="node21" class="node"><title>Mailboxer::Message</title>
<ellipse fill="none" stroke="black" cx="1098" cy="-414" rx="83.2649" ry="18"/>
<text text-anchor="middle" x="1098" y="-410.3" font-family="Times,serif" font-size="14.00">Mailboxer::Message</text>
</g>
<!-- User&#45;&gt;Mailboxer::Message -->
<g id="edge6" class="edge"><title>User&#45;&gt;Mailboxer::Message</title>
<path fill="none" stroke="#7e8ed8" d="M991.933,-872.518C996.524,-857.504 1000.93,-842.56 1005,-828 1045.23,-684.184 1080.19,-508.486 1092.9,-442.116"/>
<ellipse fill="none" stroke="#7e8ed8" cx="990.692" cy="-876.551" rx="4.00001" ry="4.00001"/>
<polygon fill="#7e8ed8" stroke="#7e8ed8" points="1092.94,-441.895 1099.23,-432.914 1093.87,-436.984 1094.81,-432.072 1094.81,-432.072 1094.81,-432.072 1093.87,-436.984 1090.39,-431.23 1092.94,-441.895 1092.94,-441.895"/>
<text text-anchor="middle" x="1025" y="-850.3" font-family="Times,serif" font-size="14.00">messages</text>
</g>
<!-- Mailboxer::Receipt -->
<g id="node22" class="node"><title>Mailboxer::Receipt</title>
<ellipse fill="none" stroke="black" cx="917" cy="-414" rx="78.9404" ry="18"/>
<text text-anchor="middle" x="917" y="-410.3" font-family="Times,serif" font-size="14.00">Mailboxer::Receipt</text>
</g>
<!-- User&#45;&gt;Mailboxer::Receipt -->
<g id="edge7" class="edge"><title>User&#45;&gt;Mailboxer::Receipt</title>
<path fill="none" stroke="#1ca307" d="M917,-871.721C917,-713.13 917,-514.239 917,-442.432"/>
<ellipse fill="none" stroke="#1ca307" cx="917" cy="-876.126" rx="4" ry="4"/>
<polygon fill="#1ca307" stroke="#1ca307" points="917,-442.401 921.5,-432.401 917,-437.401 917,-432.401 917,-432.401 917,-432.401 917,-437.401 912.5,-432.401 917,-442.401 917,-442.401"/>
<text text-anchor="middle" x="938.5" y="-850.3" font-family="Times,serif" font-size="14.00">receipts</text>
</g>
</g>
</svg>
