<?xml version="1.0" encoding="UTF-8" standalone="no"?>
<!DOCTYPE svg PUBLIC "-//W3C//DTD SVG 1.1//EN"
 "http://www.w3.org/Graphics/SVG/1.1/DTD/svg11.dtd">
<!-- Generated by graphviz version 2.36.0 (20140111.2315)
 -->
<!-- Title: models_diagram Pages: 1 -->
<svg width="1977pt" height="174pt"
 viewBox="0.00 0.00 1977.00 174.00" xmlns="http://www.w3.org/2000/svg" xmlns:xlink="http://www.w3.org/1999/xlink">
<g id="graph0" class="graph" transform="scale(1 1) rotate(0) translate(4 170)">
<title>models_diagram</title>
<polygon fill="white" stroke="none" points="-4,4 -4,-170 1973,-170 1973,4 -4,4"/>
<!-- _diagram_info -->
<g id="node1" class="node"><title>_diagram_info</title>
<text text-anchor="start" x="8" y="-151.6" font-family="Times,serif" font-size="13.00">Models diagram</text>
<text text-anchor="start" x="8" y="-137.6" font-family="Times,serif" font-size="13.00">Date: Jun 12 2015 &#45; 14:21</text>
<text text-anchor="start" x="8" y="-123.6" font-family="Times,serif" font-size="13.00">Migration version: 20150605145700</text>
<text text-anchor="start" x="8" y="-109.6" font-family="Times,serif" font-size="13.00">Generated by RailRoady 1.3.0</text>
<text text-anchor="start" x="8" y="-95.6" font-family="Times,serif" font-size="13.00">http://railroady.prestonlee.com</text>
</g>
<!-- News -->
<g id="node2" class="node"><title>News</title>
<ellipse fill="none" stroke="black" cx="263" cy="-127" rx="30.3206" ry="18"/>
<text text-anchor="middle" x="263" y="-123.3" font-family="Times,serif" font-size="14.00">News</text>
</g>
<!-- Mobile -->
<g id="node3" class="node"><title>Mobile</title>
<ellipse fill="none" stroke="black" cx="348" cy="-127" rx="36.096" ry="18"/>
<text text-anchor="middle" x="348" y="-123.3" font-family="Times,serif" font-size="14.00">Mobile</text>
</g>
<!-- Ability -->
<g id="node4" class="node"><title>Ability</title>
<polygon fill="none" stroke="black" points="457.25,-145 402.75,-145 402.75,-109 457.25,-109 457.25,-145"/>
<text text-anchor="middle" x="430" y="-123.3" font-family="Times,serif" font-size="14.00">Ability</text>
</g>
<!-- Property -->
<g id="node5" class="node"><title>Property</title>
<ellipse fill="none" stroke="black" cx="597" cy="-18" rx="40.4202" ry="18"/>
<text text-anchor="middle" x="597" y="-14.3" font-family="Times,serif" font-size="14.00">Property</text>
</g>
<!-- DirectoryEntry -->
<g id="node6" class="node"><title>DirectoryEntry</title>
<ellipse fill="none" stroke="black" cx="895" cy="-127" rx="63.5411" ry="18"/>
<text text-anchor="middle" x="895" y="-123.3" font-family="Times,serif" font-size="14.00">DirectoryEntry</text>
</g>
<!-- Message -->
<g id="node7" class="node"><title>Message</title>
<ellipse fill="none" stroke="black" cx="1070" cy="-127" rx="42.3701" ry="18"/>
<text text-anchor="middle" x="1070" y="-123.3" font-family="Times,serif" font-size="14.00">Message</text>
</g>
<!-- Attachment -->
<g id="node11" class="node"><title>Attachment</title>
<ellipse fill="none" stroke="black" cx="1070" cy="-18" rx="51.4931" ry="18"/>
<text text-anchor="middle" x="1070" y="-14.3" font-family="Times,serif" font-size="14.00">Attachment</text>
</g>
<!-- Message&#45;&gt;Attachment -->
<g id="edge1" class="edge"><title>Message&#45;&gt;Attachment</title>
<path fill="none" stroke="#535406" d="M1070,-100.772C1070,-84.4341 1070,-63.1608 1070,-46.4078"/>
<ellipse fill="none" stroke="#535406" cx="1070" cy="-104.809" rx="4" ry="4"/>
<polygon fill="#535406" stroke="#535406" points="1070,-46.1487 1074.5,-36.1487 1070,-41.1487 1070,-36.1487 1070,-36.1487 1070,-36.1487 1070,-41.1487 1065.5,-36.1488 1070,-46.1487 1070,-46.1487"/>
</g>
<!-- Contact -->
<g id="node8" class="node"><title>Contact</title>
<ellipse fill="none" stroke="black" cx="1169" cy="-127" rx="38.0212" ry="18"/>
<text text-anchor="middle" x="1169" y="-123.3" font-family="Times,serif" font-size="14.00">Contact</text>
</g>
<!-- Advertisement -->
<g id="node9" class="node"><title>Advertisement</title>
<ellipse fill="none" stroke="black" cx="1288" cy="-127" rx="63.0666" ry="18"/>
<text text-anchor="middle" x="1288" y="-123.3" font-family="Times,serif" font-size="14.00">Advertisement</text>
</g>
<!-- Agent -->
<g id="node10" class="node"><title>Agent</title>
<ellipse fill="none" stroke="black" cx="508" cy="-127" rx="32.2457" ry="18"/>
<text text-anchor="middle" x="508" y="-123.3" font-family="Times,serif" font-size="14.00">Agent</text>
</g>
<!-- Agent&#45;&gt;Property -->
<g id="edge2" class="edge"><title>Agent&#45;&gt;Property</title>
<path fill="none" stroke="#5e4328" d="M526.356,-103.932C541.108,-86.1958 561.8,-61.3186 576.978,-43.0716"/>
<ellipse fill="none" stroke="#5e4328" cx="523.69" cy="-107.137" rx="4.00002" ry="4.00002"/>
<polygon fill="#5e4328" stroke="#5e4328" points="577.127,-42.8919 586.982,-38.0814 580.325,-39.0478 583.522,-35.2038 583.522,-35.2038 583.522,-35.2038 580.325,-39.0478 580.062,-32.3261 577.127,-42.8919 577.127,-42.8919"/>
</g>
<!-- ContactAgent -->
<g id="node14" class="node"><title>ContactAgent</title>
<ellipse fill="none" stroke="black" cx="478" cy="-18" rx="59.1941" ry="18"/>
<text text-anchor="middle" x="478" y="-14.3" font-family="Times,serif" font-size="14.00">ContactAgent</text>
</g>
<!-- Agent&#45;&gt;ContactAgent -->
<g id="edge3" class="edge"><title>Agent&#45;&gt;ContactAgent</title>
<path fill="none" stroke="#a3e0a7" d="M501.001,-101.038C496.372,-84.5259 490.304,-62.8858 485.564,-45.9771"/>
<ellipse fill="none" stroke="#a3e0a7" cx="502.1" cy="-104.957" rx="4.00001" ry="4.00001"/>
<polygon fill="#a3e0a7" stroke="#a3e0a7" points="485.508,-45.7774 487.141,-34.9339 484.158,-40.9631 482.808,-36.1487 482.808,-36.1487 482.808,-36.1487 484.158,-40.9631 478.475,-37.3636 485.508,-45.7774 485.508,-45.7774"/>
</g>
<!-- Service -->
<g id="node12" class="node"><title>Service</title>
<ellipse fill="none" stroke="black" cx="1406" cy="-127" rx="37.0701" ry="18"/>
<text text-anchor="middle" x="1406" y="-123.3" font-family="Times,serif" font-size="14.00">Service</text>
</g>
<!-- Setting -->
<g id="node13" class="node"><title>Setting</title>
<ellipse fill="none" stroke="black" cx="1497" cy="-127" rx="35.6194" ry="18"/>
<text text-anchor="middle" x="1497" y="-123.3" font-family="Times,serif" font-size="14.00">Setting</text>
</g>
<!-- AdminUser -->
<g id="node15" class="node"><title>AdminUser</title>
<ellipse fill="none" stroke="black" cx="1603" cy="-127" rx="51.4931" ry="18"/>
<text text-anchor="middle" x="1603" y="-123.3" font-family="Times,serif" font-size="14.00">AdminUser</text>
</g>
<!-- MailMergeItem -->
<g id="node16" class="node"><title>MailMergeItem</title>
<ellipse fill="none" stroke="black" cx="1724" cy="-18" rx="67.3907" ry="18"/>
<text text-anchor="middle" x="1724" y="-14.3" font-family="Times,serif" font-size="14.00">MailMergeItem</text>
</g>
<!-- Provision -->
<g id="node17" class="node"><title>Provision</title>
<ellipse fill="none" stroke="black" cx="1838" cy="-127" rx="44.2946" ry="18"/>
<text text-anchor="middle" x="1838" y="-123.3" font-family="Times,serif" font-size="14.00">Provision</text>
</g>
<!-- MailMerge -->
<g id="node18" class="node"><title>MailMerge</title>
<ellipse fill="none" stroke="black" cx="1724" cy="-127" rx="51.0191" ry="18"/>
<text text-anchor="middle" x="1724" y="-123.3" font-family="Times,serif" font-size="14.00">MailMerge</text>
</g>
<!-- MailMerge&#45;&gt;MailMergeItem -->
<g id="edge4" class="edge"><title>MailMerge&#45;&gt;MailMergeItem</title>
<path fill="none" stroke="#83f6ad" d="M1724,-100.772C1724,-84.4341 1724,-63.1608 1724,-46.4078"/>
<ellipse fill="none" stroke="#83f6ad" cx="1724" cy="-104.809" rx="4" ry="4"/>
<polygon fill="#83f6ad" stroke="#83f6ad" points="1724,-46.1487 1728.5,-36.1487 1724,-41.1487 1724,-36.1487 1724,-36.1487 1724,-36.1487 1724,-41.1487 1719.5,-36.1488 1724,-46.1487 1724,-46.1487"/>
</g>
<!-- Screen -->
<g id="node19" class="node"><title>Screen</title>
<ellipse fill="none" stroke="black" cx="1935" cy="-127" rx="34.1708" ry="18"/>
<text text-anchor="middle" x="1935" y="-123.3" font-family="Times,serif" font-size="14.00">Screen</text>
</g>
<!-- User -->
<g id="node20" class="node"><title>User</title>
<ellipse fill="none" stroke="black" cx="735" cy="-127" rx="26.949" ry="18"/>
<text text-anchor="middle" x="735" y="-123.3" font-family="Times,serif" font-size="14.00">User</text>
</g>
<!-- User&#45;&gt;Property -->
<g id="edge5" class="edge"><title>User&#45;&gt;Property</title>
<path fill="none" stroke="#5833e0" d="M711.637,-107.885C687.526,-89.1903 649.936,-60.0444 624.429,-40.2674"/>
<ellipse fill="none" stroke="#5833e0" cx="714.917" cy="-110.429" rx="4.00002" ry="4.00002"/>
<polygon fill="#5833e0" stroke="#5833e0" points="624.182,-40.0758 619.036,-30.392 620.23,-37.012 616.279,-33.9483 616.279,-33.9483 616.279,-33.9483 620.23,-37.012 613.522,-37.5045 624.182,-40.0758 624.182,-40.0758"/>
</g>
<!-- Mailboxer::Message -->
<g id="node21" class="node"><title>Mailboxer::Message</title>
<ellipse fill="none" stroke="black" cx="916" cy="-18" rx="83.2649" ry="18"/>
<text text-anchor="middle" x="916" y="-14.3" font-family="Times,serif" font-size="14.00">Mailboxer::Message</text>
</g>
<!-- User&#45;&gt;Mailboxer::Message -->
<g id="edge6" class="edge"><title>User&#45;&gt;Mailboxer::Message</title>
<path fill="none" stroke="#707ad8" d="M762.014,-110.03C793.311,-91.5287 845.02,-60.9608 879.782,-40.4109"/>
<ellipse fill="none" stroke="#707ad8" cx="758.158" cy="-112.31" rx="4.00002" ry="4.00002"/>
<polygon fill="#707ad8" stroke="#707ad8" points="880.06,-40.2464 890.958,-39.0312 884.364,-37.702 888.668,-35.1575 888.668,-35.1575 888.668,-35.1575 884.364,-37.702 886.378,-31.2837 880.06,-40.2464 880.06,-40.2464"/>
<text text-anchor="middle" x="879" y="-58.3" font-family="Times,serif" font-size="14.00">messages</text>
</g>
<!-- Mailboxer::Receipt -->
<g id="node22" class="node"><title>Mailboxer::Receipt</title>
<ellipse fill="none" stroke="black" cx="735" cy="-18" rx="78.9404" ry="18"/>
<text text-anchor="middle" x="735" y="-14.3" font-family="Times,serif" font-size="14.00">Mailboxer::Receipt</text>
</g>
<!-- User&#45;&gt;Mailboxer::Receipt -->
<g id="edge7" class="edge"><title>User&#45;&gt;Mailboxer::Receipt</title>
<path fill="none" stroke="#8f2b26" d="M735,-100.772C735,-84.4341 735,-63.1608 735,-46.4078"/>
<ellipse fill="none" stroke="#8f2b26" cx="735" cy="-104.809" rx="4" ry="4"/>
<polygon fill="#8f2b26" stroke="#8f2b26" points="735,-46.1487 739.5,-36.1487 735,-41.1487 735,-36.1487 735,-36.1487 735,-36.1487 735,-41.1487 730.5,-36.1488 735,-46.1487 735,-46.1487"/>
<text text-anchor="middle" x="756.5" y="-58.3" font-family="Times,serif" font-size="14.00">receipts</text>
</g>
</g>
</svg>
